Coordinates
version=1
nRows=5
nColumns=40
inDegrees=yes

Units are S.I. units (second, meters, Newtons, ...)
Angles are in degrees.

endheader
time	pelvis_tilt	pelvis_list	pelvis_rotation	pelvis_tx	pelvis_ty	pelvis_tz	hip_flexion_r	hip_adduction_r	hip_rotation_r	knee_angle_r	knee_angle_r_beta	ankle_angle_r	subtalar_angle_r	mtp_angle_r	hip_flexion_l	hip_adduction_l	hip_rotation_l	knee_angle_l	knee_angle_l_beta	ankle_angle_l	subtalar_angle_l	mtp_angle_l	lumbar_extension	lumbar_bending	lumbar_rotation	arm_flex_r	arm_add_r	arm_rot_r	elbow_flex_r	pro_sup_r	wrist_flex_r	wrist_dev_r	arm_flex_l	arm_add_l	arm_rot_l	elbow_flex_l	pro_sup_l	wrist_flex_l	wrist_dev_l
     42.45500000	     -5.05818613	     -4.86955239	     -6.35250744	      1.06051744	      0.93085532	      0.43068878	     25.51417592	     -1.06166254	     -9.74200482	     14.92225078	     14.92225078	      3.53574266	      7.18893091	      8.18232743	      4.71086389	     -6.92673041	    -13.97755611	     14.67592046	     14.67592046	     14.07598121	    -11.30354142	     -4.08821321	    -10.80828884	      6.52441299	      1.04543961	    -12.00342054	    -11.89716288	     -6.99730422	     27.54431671	     45.63753347	      0.00000000	      0.00000000	     27.04153474	    -22.89533450	    -10.64173542	     70.08545921	     46.37760715	      0.00000000	      0.00000000
     42.46807143	     -5.14386721	     -4.68400481	     -6.49642429	      1.06182764	      0.92940098	      0.43302399	     25.30619507	     -0.89115919	    -10.28680544	     14.70310399	     14.70310399	      3.96930640	      6.92621117	      8.10209828	      4.32109490	     -6.83125468	    -14.08952892	     14.70075537	     14.70075537	     14.44804076	    -11.46338185	     -4.19425901	    -10.42195634	      6.36104677	      1.11040496	    -11.98435384	    -11.86283581	     -6.99122807	     27.54717031	     45.63761559	      0.00000000	      0.00000000	     27.02407062	    -22.86468609	    -10.65065768	     70.11881738	     46.37979217	      0.00000000	      0.00000000
     42.48114286	     -4.91716820	     -4.78706863	     -6.49352453	      1.06381341	      0.92884413	      0.43538875	     24.11838040	     -0.48619592	    -11.21421276	     13.86876284	     13.86876284	      4.10541750	      7.43189018	      7.87478292	      3.45684218	     -7.00217162	    -14.07670276	     14.58086569	     14.58086569	     14.95854870	    -11.26324963	     -3.93008317	    -10.37879356	      6.46454978	      1.31620571	    -12.00026370	    -11.67838504	     -6.89977257	     27.30790911	     45.65231706	      0.00000000	      0.00000000	     26.85714478	    -22.26237691	    -10.83753039	     70.52970816	     46.42086940	      0.00000000	      0.00000000
     42.49421429	     -4.91484875	     -4.77101944	     -6.48634803	      1.06566182	      0.92773279	      0.43792879	     23.60278962	     -0.23293907	    -11.66987456	     14.10403793	     14.10403793	      4.44057488	      7.10906912	      7.62743923	      2.96786023	     -7.10162867	    -14.02057192	     14.65211698	     14.65211698	     15.35799340	    -11.36612764	     -3.97035773	    -10.03161089	      6.44477625	      1.35294475	    -11.83369354	    -11.55444991	     -6.87366071	     27.34321871	     45.65160899	      0.00000000	      0.00000000	     26.59653851	    -21.95462861	    -10.79053869	     70.51251902	     46.41822134	      0.00000000	      0.00000000
     42.50728571	     -4.71307351	     -4.89097639	     -6.36356573	      1.06781278	      0.92691854	      0.44039743	     22.94982495	      0.04073936	    -12.00861270	     14.76188911	     14.76188911	      4.75863542	      6.65364119	      7.11705045	      2.30726065	     -7.34630573	    -13.85732542	     14.83196669	     14.83196669	     15.77300166	    -11.44175224	     -3.89419508	     -9.86376953	      6.65805141	      1.42360882	    -11.52768401	    -11.42892409	     -6.83295350	     27.39044836	     45.65146262	      0.00000000	      0.00000000	     26.16417098	    -21.43784048	    -10.74090251	     70.47657018	     46.41529278	      0.00000000	      0.00000000
